# xmcd CD database file
#
# Track frame offsets:
#	150
#	23301
#	42310
#	62015
#	76714
#	92124
#	110056
#	126362
#	142832
#	161581
#	176455
#	188143
#	200487
#	218053
#
# Disc length: 3306 seconds
#
# Revision: 0
# Processed by: cddbd v1.5.2PL0 Copyright (c) Steve Scherf et al.
# Submitted via: CDex 1.51
#
DISCID=b50ce80e
DTITLE=Gian e Giovani - Uma História de Sucesso
DYEAR=2008
DGENRE=Sertanejo
TTITLE0=Faz de Conta
TTITLE1=Eu Busco uma Estrela 
TTITLE2=Dou a Cara pra Bater 
TTITLE3=Caçador de Corações 
TTITLE4=Taça de Pranto 
TTITLE5=Roupa de Lua-de-Mel 
TTITLE6=Entre o Beijo e a Boca 
TTITLE7=Página de Amigos 
TTITLE8=Peão de Vitrine 
TTITLE9=Vai Pescar Moçada 
TTITLE10=Bons Momentos 
TTITLE11=Nem Dormindo Consigo te Esquecer 
TTITLE12=Te Amo
TTITLE13=O Grande Amor da Minha Vida 
EXTD=YEAR: 2008
EXTT0=
EXTT1=
EXTT2=
EXTT3=
EXTT4=
EXTT5=
EXTT6=
EXTT7=
EXTT8=
EXTT9=
EXTT10=
EXTT11=
EXTT12=
EXTT13=
PLAYORDER=
